<svg width="137" height="108" viewBox="0 0 137 108" fill="none" xmlns="http://www.w3.org/2000/svg">
<path d="M108.173 85.5712L12.9773 93.665L12.9765 4.66436L108.173 14.0844L108.173 85.5712Z" fill="url(#paint0_linear_1296_2345)"/>
<path d="M78.8766 53.7062C78.5689 51.8718 78.3418 50.0044 78.2047 48.161C77.6267 40.5852 78.4804 33.4761 80.6828 27.5972C81.0582 26.5928 81.4859 25.6087 81.9644 24.649C84.6536 19.2234 88.579 15.781 93.0252 14.9534L93.4323 14.8851L103.405 13.2125L104.211 18.0168L104.398 18.1533C106.138 19.4695 107.716 20.986 109.099 22.6714C114.095 28.6863 117.723 37.2343 119.309 46.691C120.895 56.1477 120.258 65.4345 117.501 72.7924C116.744 74.8493 115.75 76.8113 114.538 78.6388L114.41 78.832L115.238 83.7693L105.231 85.4476L104.851 85.5114C99.5591 86.3598 93.9681 83.6036 89.0739 77.7474C86.8831 75.0652 85.0357 72.1208 83.5745 68.9822C82.0748 65.803 80.8798 62.4892 80.0055 59.085L79.9368 58.8153C79.5234 57.1197 79.1664 55.4342 78.8766 53.7062Z" fill="#0052FF"/>
<path d="M118.726 46.7808C120.298 56.1577 119.667 65.3185 116.95 72.5802C116.208 74.5956 115.235 76.5186 114.05 78.3105L113.789 78.6939L114.558 83.2779L105.806 84.7457L104.752 84.9224C99.67 85.7357 94.2662 83.0458 89.5326 77.354C87.3709 74.7076 85.5485 71.8022 84.1074 68.7052C82.6266 65.5619 81.4446 62.2866 80.5772 58.9224L80.5543 58.7857L80.5301 58.6414C80.1097 56.9977 79.7514 55.3046 79.468 53.6146C79.1629 51.7954 78.9389 49.947 78.8007 48.1194C78.229 40.6284 79.0732 33.6029 81.2598 27.793C81.6277 26.8052 82.0463 25.837 82.5142 24.8923C85.1223 19.6365 88.8982 16.3051 93.1655 15.5075L102.918 13.8719L103.666 18.3344L104.041 18.6112C105.742 19.9007 107.286 21.3848 108.64 23.0332C113.571 28.9691 117.153 37.4038 118.726 46.7808ZM119.867 46.5893C118.329 37.4175 114.76 28.594 109.533 22.2938C108.121 20.5732 106.511 19.0255 104.734 17.6828L103.872 12.5405L92.9211 14.377C88.3989 15.2175 84.3148 18.6006 81.4471 24.3841C80.9593 25.3612 80.5241 26.3635 80.1433 27.3868C77.844 33.5279 77.0665 40.8351 77.6286 48.1988C77.7695 50.065 77.9972 51.9362 78.3087 53.7934C78.5985 55.5214 78.96 57.2335 79.3912 58.9183L79.4599 59.1879C80.3434 62.6299 81.5498 65.9809 83.0632 69.1966C84.5471 72.3786 86.421 75.3643 88.642 78.0851C93.8219 84.3152 99.6619 86.9007 104.938 86.051L115.889 84.2145L115.007 78.9582C116.244 77.0911 117.259 75.0863 118.031 72.9846C120.917 65.2808 121.401 55.758 119.863 46.5862L119.867 46.5893Z" fill="#0052FF"/>
<path d="M78.8775 53.7097C78.5985 52.0462 78.3861 50.3598 78.246 48.6848L93.7363 46.0869L95.3892 55.9424L79.8875 58.5422C79.4861 56.9422 79.1494 55.3313 78.8775 53.7097Z" fill="#0052FF"/>
<path d="M94.7226 55.4689L80.3206 57.8843C79.9828 56.4767 79.6887 55.05 79.4486 53.6182C79.2085 52.1864 79.0095 50.6501 78.8708 49.17L93.2615 46.7566L94.7226 55.4689ZM96.0552 56.4168L94.2119 45.4258L77.6257 48.2075C77.7672 50.0775 77.995 51.9487 78.3071 53.8096C78.6192 55.6706 78.9959 57.427 79.4576 59.2004L96.0552 56.4168Z" fill="#0052FF"/>
<path d="M97.7844 66.7276L83.0627 69.1965C81.5498 65.9846 80.3428 62.6377 79.4575 59.2L79.3818 58.912L79.3562 58.5258L95.9424 55.7441L97.7844 66.7276Z" fill="white"/>
<path d="M107.423 43.2098L77.626 48.2071C77.0639 40.8434 77.8414 33.5362 80.1407 27.3951C80.5215 26.3718 80.9567 25.3695 81.4445 24.3924L103.643 20.6694L107.423 43.2098Z" fill="white"/>
<path d="M89.6713 51.8922C88.079 42.3976 88.7257 33.1443 91.4782 25.787C93.5002 20.3952 96.5044 16.4748 100.164 14.4592C106.348 11.048 113.717 13.4397 119.882 20.8555C124.877 26.8705 128.506 35.4185 130.091 44.8752C131.677 54.3319 131.04 63.6187 128.284 70.9766C124.86 80.1177 118.637 84.8553 111.63 83.6407C107.565 82.9363 103.505 80.263 99.8794 75.9043C94.8849 69.8931 91.2599 61.3641 89.6713 51.8922Z" fill="#85ABFF"/>
<path d="M129.521 44.9746C131.093 54.3478 130.462 63.5086 127.741 70.7747C124.423 79.6364 118.438 84.2325 111.734 83.0726C107.805 82.3921 103.863 79.7851 100.33 75.5358C95.3949 69.6005 91.8137 61.1696 90.2417 51.7964C88.6697 42.4233 89.2994 33.2549 92.0209 25.9926C93.9935 20.7263 96.9064 16.9149 100.444 14.9627C106.364 11.7013 113.465 14.0402 119.435 21.2232C124.366 27.1592 127.948 35.5939 129.521 44.9746ZM130.663 44.7832C129.124 35.6113 125.555 26.7878 120.329 20.4876C113.746 12.5678 106.093 10.5323 99.8885 13.9587C96.2322 15.9737 93.0808 19.8797 90.9399 25.5882C88.0576 33.2914 87.5696 42.8148 89.1085 51.9904C90.6473 61.1661 94.2149 69.9819 99.4411 76.2784C103.278 80.8906 107.475 83.5214 111.538 84.2143C118.557 85.4308 125.177 80.9351 128.827 71.1626C131.713 63.4588 132.198 53.936 130.659 44.7642L130.663 44.7832Z" fill="white"/>
<path d="M111.133 75.6172C108.043 75.0812 104.841 73.0918 101.937 69.5843C93.9833 60.0164 91.0897 42.7627 95.4755 31.055C97.0942 26.7109 99.4991 23.7422 102.278 22.2102C106.994 19.6075 112.812 21.1541 117.816 27.1755C125.767 36.7478 128.664 53.9971 124.278 65.7086C121.505 73.128 116.472 76.5415 111.133 75.6172Z" fill="white"/>
<defs>
<linearGradient id="paint0_linear_1296_2345" x1="105.641" y1="39.9347" x2="39.0451" y2="51.1788" gradientUnits="userSpaceOnUse">
<stop stop-color="#B4CCFF"/>
<stop offset="1" stop-color="white" stop-opacity="0"/>
</linearGradient>
</defs>
</svg>
