<svg width="18" height="18" viewBox="0 0 18 18" fill="none" xmlns="http://www.w3.org/2000/svg">
<rect width="18" height="18" rx="9" fill="white"/>
<g clip-path="url(#clip0_2069_23067)">
<path d="M3.53125 1H14.8531V17H3.53125V1Z" fill="white"/>
<path d="M-2.125 1H3.53438V17H-2.125V1ZM14.8563 1H20.5156V17H14.8563V1ZM5.22813 8.73125L4.79063 8.88125L6.83438 10.6781C6.99063 11.1406 6.78125 11.275 6.64688 11.5188L8.86563 11.2375L8.80937 13.4719L9.27188 13.4563L9.16875 11.2406L11.3938 11.5031C11.2563 11.2125 11.1344 11.0594 11.2594 10.5969L13.3031 8.89375L12.9469 8.76562C12.6531 8.5375 13.0719 7.67812 13.1344 7.13438C13.1344 7.13438 11.9438 7.54375 11.8656 7.32812L11.5562 6.75L10.475 7.9375C10.3563 7.96875 10.3062 7.91875 10.2781 7.81875L10.7781 5.32812L9.98438 5.775C9.91562 5.80208 9.85729 5.77708 9.80937 5.7L9.04375 4.16875L8.25625 5.75938C8.19375 5.81563 8.1375 5.82396 8.0875 5.78438L7.33125 5.35938L7.78438 7.83437C7.75 7.92812 7.6625 7.95937 7.5625 7.90625L6.52188 6.725C6.3875 6.94375 6.29375 7.3 6.11563 7.38125C5.9375 7.45312 5.33437 7.22813 4.93125 7.14062C5.06875 7.6375 5.5 8.4625 5.22813 8.73438V8.73125Z" fill="#D52B1E"/>
</g>
<defs>
<clipPath id="clip0_2069_23067">
<rect x="1" y="1" width="16" height="16" rx="8" fill="white"/>
</clipPath>
</defs>
</svg>
