<svg width="468" height="175" viewBox="0 0 468 175" fill="none" xmlns="http://www.w3.org/2000/svg">
<g clip-path="url(#clip0_897_2548)">
<path d="M0 0H452C460.837 0 468 7.16344 468 16V159C468 167.837 460.837 175 452 175H0V0Z" fill="#0052FF"/>
<path d="M147.854 117.903V126.796L148.651 126.333V117.903H147.854Z" fill="#0F211F"/>
<path d="M155.471 104.451V122.389L156.272 121.927V104.451H155.471Z" fill="#0F211F"/>
<path d="M163.094 91.0615V117.982L163.893 117.52V91.0615H163.094Z" fill="#0F211F"/>
<path d="M170.715 81.1083V113.576L171.514 113.113V81.1083H170.715Z" fill="#0F211F"/>
<path d="M178.334 70.8125V109.169L179.134 108.705V70.8125H178.334Z" fill="#0F211F"/>
<path d="M185.955 63.2329V104.76L186.756 104.3V63.2329H185.955Z" fill="#0F211F"/>
<path d="M193.578 54.1083V100.356L194.378 99.8915V54.1083H193.578Z" fill="#0F211F"/>
<path d="M201.406 48.8987V95.7647L202.206 95.3006V48.8987H201.406Z" fill="#0F211F"/>
<path d="M209.023 43.4166V91.3801L209.825 90.9179V43.4166H209.023Z" fill="#0F211F"/>
<path d="M216.646 38.1997V86.9771L217.448 86.5149V38.1997H216.646Z" fill="#0F211F"/>
<path d="M224.281 34.2958V82.576L225.081 82.1119V34.2958H224.281Z" fill="#0F211F"/>
<path d="M231.887 31.1229V78.1545L232.688 77.6923V31.1229H231.887Z" fill="#0F211F"/>
<path d="M239.908 27.9003V73.5397L240.708 73.0757V27.9003H239.908Z" fill="#0F211F"/>
<path d="M247.531 26.1766V69.1294L248.329 68.6672V26.1766H247.531Z" fill="#0F211F"/>
<path d="M255.258 26.1196V64.6509L256.057 64.1887V26.1196H255.258Z" fill="#0F211F"/>
<path d="M262.811 27.9297V60.3326L263.612 59.8704V27.9297H262.811Z" fill="#0F211F"/>
<path d="M270.473 31.0529V55.821L271.272 55.3569V31.0529H270.473Z" fill="#0F211F"/>
<path d="M278.811 40.9086H278.012V51.5266L278.811 51.0644V40.9086Z" fill="#0F211F"/>
<path d="M223.403 35.0452C223.846 34.8132 224.279 34.6051 224.721 34.3823C225.595 33.9385 226.472 33.4966 227.336 33.0933C227.849 32.852 228.351 32.6347 228.858 32.4082C229.637 32.0565 230.417 31.7085 231.189 31.388C231.72 31.1689 232.244 30.9663 232.769 30.7601C233.504 30.4728 234.24 30.1911 234.962 29.9314C235.49 29.7473 236.013 29.5631 236.539 29.39C237.246 29.1531 237.948 28.9297 238.645 28.7197C239.165 28.5626 239.682 28.414 240.197 28.2741C240.884 28.0899 241.566 27.9058 242.242 27.7493C242.742 27.6296 243.244 27.5117 243.739 27.4049C244.42 27.2613 245.093 27.136 245.76 27.02C246.231 26.9372 246.705 26.8488 247.17 26.7806C247.859 26.6775 248.536 26.5965 249.212 26.5302C249.64 26.4842 250.07 26.4271 250.499 26.3921C251.251 26.3313 251.984 26.3037 252.715 26.2816C253.044 26.2705 253.379 26.2429 253.704 26.2392C254.752 26.2392 255.783 26.254 256.788 26.3203C256.91 26.3203 257.02 26.3479 257.14 26.3571C258.025 26.4234 258.895 26.5136 259.748 26.6388C260.08 26.6867 260.398 26.7604 260.725 26.823C261.35 26.9335 261.972 27.0458 262.578 27.1913C262.946 27.2778 263.301 27.3865 263.663 27.4859C264.214 27.6333 264.749 27.7861 265.276 27.961C265.644 28.0844 266.012 28.2225 266.365 28.3588C266.864 28.5429 267.359 28.74 267.835 28.9536C268.192 29.1101 268.539 29.2777 268.884 29.4471C269.351 29.6773 269.803 29.9167 270.261 30.169C270.597 30.3531 270.928 30.552 271.255 30.7527C271.695 31.0253 272.125 31.3052 272.542 31.609C272.726 31.7416 272.937 31.8558 273.125 31.9957L271.458 30.7638C259.479 21.8933 240.285 22.9724 217.732 36.0176L219.4 37.2495C220.747 36.4687 222.081 35.7395 223.403 35.0452Z" fill="white"/>
<path d="M219.399 37.2495L217.732 36.0176C186.513 54.0771 157.759 89.9438 144 125.05L145.698 126.197C159.471 91.1186 188.204 55.2943 219.399 37.2495Z" fill="white"/>
<path d="M281.71 47.6944C281.614 47.4403 281.526 47.1733 281.427 46.9228C281.093 46.0917 280.736 45.2864 280.355 44.5068C280.309 44.4129 280.254 44.3227 280.208 44.2324C279.866 43.5548 279.511 42.8937 279.133 42.2565C278.988 42.0097 278.826 41.7777 278.673 41.5365C278.381 41.0724 278.087 40.6157 277.774 40.1683C277.591 39.9031 277.385 39.6526 277.19 39.393C276.892 39.0026 276.591 38.6122 276.271 38.2402C276.054 37.9842 275.828 37.7393 275.606 37.4907C275.288 37.1427 274.968 36.802 274.637 36.4724C274.398 36.2367 274.154 36.0065 273.902 35.78C273.562 35.4651 273.214 35.1631 272.86 34.8684C272.604 34.6567 272.347 34.4467 272.084 34.2442C271.656 33.9164 271.219 33.6015 270.773 33.2995C275.051 36.6952 278.307 41.4555 280.381 47.4477L281.936 48.3463C281.862 48.1309 281.791 47.908 281.71 47.6944Z" fill="#9DCAFF"/>
<path d="M219.22 39.0652C240.679 26.6554 259.023 25.3516 270.784 33.2995C271.231 33.6015 271.668 33.9164 272.094 34.2442C272.357 34.4467 272.615 34.6567 272.87 34.8684C273.225 35.1631 273.572 35.4651 273.912 35.78C274.159 36.0065 274.403 36.2367 274.648 36.4724C274.978 36.802 275.298 37.1427 275.616 37.4907C275.839 37.7393 276.065 37.9842 276.281 38.2402C276.596 38.6085 276.897 39.0026 277.201 39.393C277.395 39.6526 277.598 39.9031 277.785 40.1682C278.097 40.6102 278.392 41.0724 278.684 41.5365C278.836 41.7777 278.998 42.0097 279.143 42.2565C279.522 42.8937 279.878 43.5455 280.219 44.2324C280.264 44.3263 280.32 44.4166 280.366 44.5068C280.748 45.2851 281.105 46.0905 281.437 46.9228C281.538 47.1733 281.621 47.4403 281.72 47.6944C281.801 47.908 281.873 48.1309 281.952 48.3463L283.821 47.2598C281.483 40.415 277.623 35.1465 272.552 31.5961C272.129 31.2996 271.699 31.0124 271.266 30.7398C270.933 30.5391 270.602 30.3384 270.271 30.1542C269.821 29.9019 269.352 29.6626 268.895 29.4324C268.549 29.2629 268.2 29.0954 267.845 28.9388C267.362 28.7252 266.867 28.5319 266.375 28.344C266.007 28.2078 265.656 28.0697 265.286 27.9463C264.759 27.7713 264.217 27.6185 263.673 27.4712C263.305 27.3717 262.956 27.2631 262.588 27.1765C261.982 27.0347 261.36 26.9224 260.736 26.8082C260.408 26.7512 260.09 26.6775 259.758 26.6241C258.905 26.4989 258.035 26.4086 257.15 26.3423C257.03 26.3331 256.92 26.3129 256.799 26.3055C255.793 26.2392 254.762 26.2153 253.714 26.2245C253.389 26.2245 253.054 26.2558 252.725 26.2668C251.99 26.2889 251.255 26.3166 250.509 26.3773C250.088 26.4123 249.656 26.4694 249.222 26.5154C248.546 26.5873 247.869 26.6628 247.18 26.7659C246.715 26.834 246.241 26.9224 245.77 27.0053C245.1 27.1213 244.427 27.2465 243.749 27.3902C243.254 27.497 242.752 27.6148 242.252 27.7345C241.576 27.8966 240.894 28.0697 240.207 28.2593C239.692 28.3993 239.175 28.5478 238.655 28.705C237.958 28.9149 237.256 29.1383 236.549 29.3753C236.023 29.5594 235.5 29.727 234.972 29.9167C234.246 30.1874 233.511 30.4691 232.776 30.7564C232.25 30.9626 231.726 31.1652 231.195 31.3843C230.423 31.7048 229.644 32.0528 228.864 32.4045C228.357 32.631 227.853 32.8483 227.342 33.0896C226.479 33.4965 225.602 33.9385 224.727 34.3786C224.286 34.6014 223.852 34.8095 223.409 35.0415C222.086 35.7358 220.751 36.465 219.404 37.2513C188.187 55.3035 159.439 91.1591 145.674 126.258L147.549 125.142C161.121 91.1388 188.99 56.552 219.22 39.0652Z" fill="#5CA6FF"/>
<path d="M212.505 66.9159L212.509 68.4886L194.218 57.9479L194.213 56.3771L212.505 66.9159Z" fill="#5CA6FF"/>
<path d="M194.213 56.377L195.579 55.587L213.869 66.1259L212.505 66.9159L194.213 56.377Z" fill="#9DCAFF"/>
<path d="M213.87 66.1259L213.875 67.6985L212.51 68.4885L212.506 66.9159L213.87 66.1259Z" fill="#CCCCCC"/>
<path d="M238.635 44.6891L238.638 46.2599L222.668 37.0506L222.664 35.478L238.635 44.6891Z" fill="#5CA6FF"/>
<path d="M222.664 35.478L224.03 34.688L240 43.8991L238.635 44.6891L222.664 35.478Z" fill="#9DCAFF"/>
<path d="M240 43.8991L240.006 45.4699L238.638 46.2599L238.635 44.6891L240 43.8991Z" fill="#CCCCCC"/>
<path d="M272.187 34.2957L272.193 35.8702L261.273 29.6147L261.268 28.0439L272.187 34.2957Z" fill="#5CA6FF"/>
<path d="M261.268 28.0439L262.633 27.2539L273.553 33.5058L272.187 34.2958L261.268 28.0439Z" fill="#9DCAFF"/>
<path d="M273.553 33.5057L273.557 35.0802L272.193 35.8702L272.188 34.2957L273.553 33.5057Z" fill="#CCCCCC"/>
<path d="M183.798 127.14L183.802 128.711L153.224 111.08L153.219 109.51L183.798 127.14Z" fill="#5CA6FF"/>
<path d="M153.219 109.51L154.586 108.72L185.163 126.35L183.798 127.14L153.219 109.51Z" fill="#9DCAFF"/>
<path d="M185.163 126.35L185.166 127.921L183.801 128.711L183.797 127.14L185.163 126.35Z" fill="#CCCCCC"/>
<path d="M195.378 95.947L195.381 97.5178L170.849 83.366L170.844 81.7952L195.378 95.947Z" fill="#5CA6FF"/>
<path d="M170.844 81.7951L172.209 81.0033L196.743 95.157L195.378 95.947L170.844 81.7951Z" fill="#9DCAFF"/>
<path d="M196.745 95.157L196.75 96.7278L195.383 97.5178L195.379 95.947L196.745 95.157Z" fill="#CCCCCC"/>
<path d="M317.124 60.7101L317.13 62.2827L277.072 39.3543L277.066 37.7835L317.124 60.7101Z" fill="#5CA6FF"/>
<path d="M277.066 37.7835L278.432 36.9935L318.49 59.9201L317.124 60.7101L277.066 37.7835Z" fill="#9DCAFF"/>
<path d="M318.489 59.9201L318.494 61.4927L317.129 62.2827L317.123 60.7101L318.489 59.9201Z" fill="#CCCCCC"/>
<path d="M186.162 118.625V145.522L186.963 145.06V118.625H186.162Z" fill="#0F211F"/>
<path d="M193.783 99.2175V141.115L194.585 140.653V99.2175H193.783Z" fill="#0F211F"/>
<path d="M201.406 84.2701V136.708L202.206 136.246V84.2701H201.406Z" fill="#0F211F"/>
<path d="M209.023 71.9984V132.302L209.825 131.838V71.9984H209.023Z" fill="#0F211F"/>
<path d="M216.646 63.2753V127.895L217.448 127.431V63.2753H216.646Z" fill="#0F211F"/>
<path d="M224.27 55.5908V123.486L225.067 123.024V55.5908H224.27Z" fill="#0F211F"/>
<path d="M231.887 49.3573V119.082L232.688 118.618V49.3573H231.887Z" fill="#0F211F"/>
<path d="M239.908 44.6836V114.443L240.708 113.979V44.6836H239.908Z" fill="#0F211F"/>
<path d="M247.531 41.5604V110.036L248.329 109.572V41.5604H247.531Z" fill="#0F211F"/>
<path d="M255.256 37.3342V105.567L256.057 105.105V37.3342H255.256Z" fill="#0F211F"/>
<path d="M262.811 35.3141V101.197L263.612 100.735V35.3141H262.811Z" fill="#0F211F"/>
<path d="M270.473 34.8316V96.7683L271.272 96.3042V34.8316H270.473Z" fill="#0F211F"/>
<path d="M278.012 34.8316V92.4076L278.811 91.9436V34.8316H278.012Z" fill="#0F211F"/>
<path d="M285.787 36.373V87.9126L286.587 87.4485V36.373H285.787Z" fill="#0F211F"/>
<path d="M293.434 39.207V83.4912L294.231 83.029V39.207H293.434Z" fill="#0F211F"/>
<path d="M300.898 43.0483V79.1728L301.698 78.7106V43.0483H300.898Z" fill="#0F211F"/>
<path d="M308.9 49.779V74.5452L309.702 74.083V49.779H308.9Z" fill="#0F211F"/>
<path d="M317.124 59.6365H316.324V70.2527L317.124 69.7904V59.6365Z" fill="#0F211F"/>
<path d="M244.921 41.6875C245.316 41.4831 245.711 41.3026 246.108 41.1056C246.919 40.7041 247.731 40.3082 248.542 39.9417C249.003 39.7337 249.461 39.5421 249.92 39.3451C250.665 39.0265 251.407 38.7153 252.15 38.4244C252.633 38.2402 253.117 38.0561 253.598 37.8719C254.321 37.6104 255.04 37.3606 255.756 37.1224C256.239 36.964 256.721 36.8094 257.201 36.662C257.936 36.4429 258.654 36.2403 259.379 36.047C259.838 35.9236 260.298 35.7965 260.759 35.6787C261.535 35.4945 262.307 35.3288 263.077 35.1723C263.476 35.0913 263.876 34.9992 264.271 34.9274C265.281 34.7432 266.293 34.5904 267.286 34.4615C267.438 34.4412 267.593 34.4117 267.747 34.3933C268.898 34.2534 270.039 34.1539 271.177 34.0858C271.524 34.0637 271.866 34.0637 272.212 34.049C273 34.0177 273.789 33.9919 274.568 33.9937C274.994 33.9937 275.415 34.014 275.838 34.0232C276.533 34.0434 277.228 34.0674 277.915 34.1134C278.362 34.1429 278.806 34.1834 279.248 34.2239C279.909 34.2847 280.567 34.3565 281.222 34.4431C281.666 34.5001 282.108 34.5646 282.547 34.6272C283.201 34.7322 283.852 34.8519 284.499 34.9808C284.922 35.0655 285.344 35.1465 285.763 35.2423C286.442 35.3951 287.112 35.5719 287.785 35.7542C288.153 35.8555 288.535 35.9383 288.906 36.058C289.721 36.2993 290.522 36.57 291.32 36.8517C291.537 36.9272 291.755 36.9898 291.969 37.0709L292.044 37.0948L290.404 36.4853C275.419 30.9387 257.631 32.6568 239.664 43.0446L241.305 43.6542C242.519 42.9599 243.717 42.3081 244.921 41.6875Z" fill="white"/>
<path d="M241.306 43.6579L239.664 43.0447C205.801 62.6363 181.735 107.024 179.07 150.048L180.69 151.004C183.246 107.874 207.352 63.3011 241.306 43.6579Z" fill="white"/>
<path d="M322.167 70.2564C321.927 69.7205 321.686 69.1846 321.432 68.6616C321.065 67.89 320.679 67.1387 320.289 66.3911C320.035 65.9049 319.785 65.4132 319.522 64.9381C319.089 64.1518 318.635 63.3931 318.179 62.6363C317.936 62.2367 317.703 61.8242 317.457 61.4319C316.835 60.4541 316.192 59.5076 315.534 58.5832C315.431 58.4377 315.335 58.2848 315.233 58.1412C314.466 57.0823 313.672 56.064 312.854 55.077C312.604 54.7731 312.338 54.4914 312.082 54.1949C311.507 53.5264 310.928 52.8635 310.331 52.2319C309.998 51.8783 309.654 51.5468 309.314 51.2061C308.763 50.6537 308.224 50.1197 307.66 49.6022C307.292 49.2578 306.908 48.9282 306.528 48.5968C305.976 48.118 305.425 47.6465 304.857 47.1935C304.458 46.875 304.057 46.5637 303.651 46.2581C303.079 45.8272 302.501 45.4104 301.916 45.0077C301.504 44.7223 301.093 44.4405 300.674 44.1698C300.065 43.7776 299.448 43.4038 298.836 43.0391C298.424 42.7997 298.016 42.553 297.599 42.3246C296.928 41.9563 296.242 41.6157 295.557 41.2805C295.174 41.0964 294.797 40.8956 294.412 40.7281C293.549 40.334 292.673 39.9767 291.79 39.6361C291.291 39.4433 290.789 39.2592 290.285 39.0836C302.951 44.0262 313.52 54.3422 320.311 69.1367L322.202 70.3337C322.189 70.3089 322.177 70.283 322.167 70.2564Z" fill="#9DCAFF"/>
<path d="M241.649 45.7645C258.833 35.8205 275.836 34.0342 290.281 39.0744C290.785 39.2499 291.287 39.4341 291.787 39.6268C292.669 39.9675 293.546 40.3248 294.408 40.7188C294.794 40.903 295.17 41.0871 295.553 41.2713C296.238 41.6064 296.924 41.9453 297.595 42.3154C298.012 42.5438 298.42 42.7905 298.832 43.0299C299.453 43.3982 300.071 43.7665 300.67 44.1606C301.089 44.4313 301.5 44.713 301.912 44.9985C302.498 45.4011 303.076 45.8179 303.647 46.2488C304.053 46.5545 304.454 46.8657 304.853 47.1843C305.419 47.6373 305.974 48.1051 306.524 48.5875C306.904 48.919 307.283 49.2486 307.656 49.593C308.207 50.1104 308.759 50.6518 309.31 51.1969C309.65 51.5376 309.994 51.8691 310.327 52.2226C310.924 52.8543 311.503 53.5117 312.078 54.1857C312.334 54.4821 312.6 54.7639 312.85 55.0677C313.668 56.0548 314.462 57.0731 315.229 58.132C315.332 58.2756 315.427 58.4284 315.53 58.5739C316.188 59.4947 316.831 60.4449 317.453 61.4227C317.699 61.8149 317.932 62.2274 318.175 62.627C318.631 63.3839 319.094 64.1426 319.519 64.9289C319.781 65.404 320.031 65.8957 320.285 66.3818C320.675 67.1295 321.059 67.8808 321.428 68.6524C321.68 69.1754 321.921 69.7113 322.163 70.2471L323.937 69.1422C316.866 53.1728 305.574 42.1239 291.961 37.0911C291.748 37.0101 291.529 36.9475 291.312 36.872C290.515 36.5902 289.713 36.3195 288.899 36.0783C288.531 35.9678 288.153 35.8757 287.778 35.7744C287.109 35.5903 286.438 35.4061 285.756 35.2625C285.337 35.1668 284.914 35.0784 284.491 35.001C283.844 34.8721 283.194 34.7524 282.54 34.6474C282.1 34.5793 281.659 34.5149 281.214 34.4633C280.56 34.3768 279.902 34.3049 279.24 34.2442C278.799 34.2037 278.354 34.1631 277.908 34.1337C277.22 34.0876 276.526 34.0637 275.831 34.0434C275.408 34.0342 274.987 34.014 274.561 34.014C273.781 34.014 272.993 34.0379 272.204 34.0692C271.859 34.084 271.517 34.084 271.17 34.1061C270.032 34.1742 268.89 34.2736 267.74 34.4136C267.585 34.432 267.431 34.4615 267.278 34.4817C266.279 34.6106 265.273 34.7635 264.264 34.9476C263.869 35.0194 263.468 35.1115 263.069 35.1925C262.299 35.3491 261.527 35.5111 260.752 35.6989C260.292 35.8113 259.833 35.9383 259.371 36.0672C258.647 36.2606 257.921 36.4632 257.193 36.6823C256.714 36.8296 256.232 36.9843 255.749 37.1427C255.032 37.3808 254.312 37.6307 253.591 37.8922C253.109 38.0763 252.626 38.2476 252.142 38.4446C251.407 38.7337 250.657 39.0449 249.913 39.3653C249.453 39.5624 248.994 39.7539 248.534 39.962C247.724 40.3303 246.911 40.7244 246.101 41.1258C245.704 41.3229 245.309 41.4941 244.913 41.7077C243.717 42.308 242.519 42.9599 241.305 43.6579C207.352 63.301 183.246 107.874 180.689 151.004L182.504 149.96C185.196 108.035 208.653 64.8516 241.649 45.7645Z" fill="#5CA6FF"/>
<path d="M304.91 132.92C304.022 132.92 303.125 132.88 302.247 132.799C298.635 132.473 295.356 131.51 292.762 130.009C292.319 129.753 291.89 129.474 291.476 129.173C289.134 127.479 287.824 125.359 287.785 123.201V123.004V118.177H290.11L290.189 118.1C290.946 117.385 291.785 116.762 292.687 116.244C295.913 114.367 300.223 113.334 304.8 113.334C309.376 113.334 313.698 114.367 316.943 116.246C317.852 116.764 318.697 117.387 319.462 118.102L319.542 118.177H321.932V123.021V123.205C321.913 125.763 320.175 128.177 317.032 130.018C315.596 130.838 314.064 131.475 312.472 131.915C310.857 132.37 309.202 132.671 307.531 132.814L307.399 132.825C306.568 132.885 305.746 132.92 304.91 132.92Z" fill="#00468C"/>
<path d="M304.796 113.616C309.334 113.616 313.597 114.636 316.8 116.489C317.69 116.997 318.519 117.607 319.269 118.306L319.429 118.459H321.647V122.695V123.205C321.629 125.661 319.936 127.993 316.883 129.771C315.467 130.58 313.955 131.209 312.383 131.642C310.787 132.091 309.152 132.389 307.5 132.532H307.434H307.364C306.557 132.6 305.732 132.635 304.914 132.635C304.033 132.635 303.146 132.594 302.274 132.515C298.703 132.193 295.463 131.241 292.9 129.753C292.465 129.502 292.042 129.228 291.634 128.934C289.366 127.291 288.096 125.251 288.057 123.179V118.459H290.217L290.377 118.305C291.118 117.606 291.939 116.996 292.821 116.489C296.005 114.636 300.258 113.616 304.796 113.616ZM304.796 113.064C300.357 113.064 295.922 114.047 292.544 116.01C291.623 116.539 290.767 117.175 289.995 117.905H287.506V123.205C287.544 125.4 288.815 127.589 291.311 129.396C291.732 129.703 292.169 129.987 292.621 130.247C295.33 131.814 298.709 132.757 302.219 133.073C303.109 133.154 304.008 133.195 304.906 133.195C305.743 133.195 306.577 133.16 307.404 133.09L307.537 133.079C309.227 132.935 310.899 132.631 312.532 132.173C314.147 131.725 315.701 131.079 317.157 130.248C320.498 128.302 322.176 125.757 322.193 123.207V117.907H319.649C318.868 117.177 318.004 116.541 317.076 116.012C313.677 114.045 309.233 113.065 304.794 113.065L304.796 113.064Z" fill="#00468C"/>
<path d="M304.911 132.92C304.106 132.92 303.296 132.887 302.496 132.821V125.324H307.266V132.827C306.481 132.889 305.696 132.92 304.911 132.92Z" fill="#00468C"/>
<path d="M306.99 125.6V132.571C306.301 132.618 305.606 132.644 304.914 132.644C304.221 132.644 303.482 132.617 302.774 132.565V125.6H306.99ZM307.542 125.048H302.223V133.075C303.114 133.156 304.013 133.197 304.914 133.197C305.814 133.197 306.671 133.158 307.542 133.081V125.048Z" fill="#00468C"/>
<path d="M312.532 125.048V132.173C310.901 132.631 309.23 132.935 307.542 133.081L307.401 133.094L307.217 133.075V125.048H312.532Z" fill="white"/>
<path d="M302.223 118.654V133.075C298.712 132.758 295.334 131.816 292.625 130.248C292.173 129.988 291.736 129.704 291.314 129.398V118.654H302.223Z" fill="white"/>
<path d="M304.907 127.696C300.312 127.696 296.008 126.661 292.762 124.785C290.383 123.407 288.775 121.684 288.115 119.802C286.998 116.621 288.705 113.342 292.683 111.025C295.908 109.149 300.219 108.116 304.795 108.116C309.372 108.116 313.693 109.149 316.939 111.027C320.972 113.36 322.71 116.664 321.586 119.866C320.933 121.724 319.354 123.424 317.016 124.787C313.792 126.663 309.491 127.696 304.907 127.696Z" fill="#85ABFF"/>
<path d="M304.797 108.392C309.334 108.392 313.596 109.412 316.801 111.266C320.711 113.528 322.402 116.708 321.327 119.772C320.696 121.568 319.158 123.218 316.879 124.545C313.695 126.4 309.444 127.42 304.908 127.42C300.371 127.42 296.105 126.4 292.902 124.545C290.578 123.201 289.014 121.529 288.375 119.71C287.307 116.666 288.968 113.507 292.821 111.265C296.004 109.412 300.257 108.392 304.797 108.392ZM304.797 107.839C300.358 107.839 295.923 108.823 292.545 110.786C288.297 113.259 286.735 116.701 287.858 119.892C288.518 121.772 290.108 123.564 292.626 125.022C296.024 126.987 300.469 127.969 304.909 127.969C309.35 127.969 313.782 126.985 317.158 125.022C319.632 123.58 321.202 121.813 321.849 119.955C322.975 116.747 321.382 113.275 317.07 110.786C313.671 108.819 309.227 107.839 304.788 107.839H304.797Z" fill="white"/>
<path d="M317.77 119.467C317.274 120.879 316.085 122.229 314.205 123.319C309.073 126.308 300.723 126.308 295.558 123.319C293.641 122.214 292.433 120.848 291.931 119.419C291.079 116.993 292.266 114.377 295.495 112.496C300.629 109.51 308.977 109.508 314.144 112.496C317.417 114.388 318.627 117.027 317.77 119.467Z" fill="#0052FF"/>
<path d="M265.912 138.859C265.022 138.859 264.125 138.819 263.247 138.738C259.637 138.412 256.358 137.449 253.764 135.948C253.321 135.692 252.892 135.413 252.478 135.112C250.136 133.418 248.826 131.296 248.787 129.14V128.937V124.12H251.112L251.193 124.044C251.949 123.329 252.787 122.706 253.689 122.188C256.915 120.312 261.225 119.279 265.802 119.279C270.378 119.279 274.699 120.312 277.945 122.188C278.854 122.707 279.7 123.33 280.465 124.044L280.544 124.12H282.934V128.967V129.142C282.915 131.701 281.175 134.114 278.034 135.955C276.597 136.774 275.065 137.412 273.472 137.852C271.857 138.307 270.204 138.608 268.533 138.751L268.399 138.762C267.57 138.824 266.737 138.859 265.912 138.859Z" fill="#00468C"/>
<path d="M265.796 119.555C270.334 119.555 274.598 120.575 277.802 122.428C278.693 122.938 279.52 123.551 280.269 124.254L280.429 124.405H282.647V128.641V129.149C282.629 131.607 280.938 133.937 277.883 135.718C276.467 136.526 274.956 137.154 273.385 137.589C271.788 138.038 270.153 138.335 268.5 138.476H268.434H268.366C267.557 138.546 266.732 138.581 265.914 138.581C265.033 138.581 264.146 138.541 263.276 138.461C259.705 138.139 256.464 137.185 253.902 135.699C253.466 135.448 253.044 135.174 252.638 134.878C250.37 133.237 249.1 131.195 249.061 129.125V128.983V124.38H251.221L251.381 124.227C252.122 123.528 252.944 122.919 253.827 122.411C257.01 120.558 261.262 119.538 265.8 119.538M265.8 118.986C261.361 118.986 256.926 119.967 253.549 121.932C252.628 122.461 251.772 123.097 251 123.827H248.506V129.127C248.546 131.322 249.815 133.512 252.311 135.318C252.733 135.624 253.171 135.908 253.623 136.169C256.332 137.736 259.71 138.679 263.219 138.995C264.109 139.076 265.008 139.119 265.906 139.119C266.743 139.119 267.577 139.082 268.404 139.012L268.538 139.001C270.227 138.856 271.897 138.552 273.529 138.093C275.144 137.646 276.697 137 278.153 136.169C281.496 134.222 283.173 131.677 283.191 129.127V123.844H280.649C279.868 123.113 279.005 122.477 278.076 121.949C274.677 119.984 270.233 119.002 265.794 119.002L265.8 118.986Z" fill="#00468C"/>
<path d="M265.917 138.857C265.11 138.857 264.3 138.824 263.5 138.76V131.261H268.268V138.765C267.49 138.826 266.7 138.857 265.917 138.857Z" fill="#00468C"/>
<path d="M267.99 131.537V138.507C267.301 138.557 266.606 138.581 265.914 138.581C265.221 138.581 264.484 138.555 263.774 138.504V131.537H267.99ZM268.542 130.985H263.223V139.012C264.114 139.093 265.013 139.134 265.914 139.134C266.814 139.134 267.671 139.095 268.542 139.018V130.985Z" fill="#00468C"/>
<path d="M273.532 130.985V138.11C271.901 138.568 270.23 138.872 268.542 139.018L268.408 139.029L268.213 139.012V130.985H273.532Z" fill="white"/>
<path d="M263.223 124.591V139.012C259.714 138.695 256.336 137.752 253.627 136.185C253.175 135.925 252.737 135.641 252.314 135.335V124.591H263.223Z" fill="white"/>
<path d="M265.909 133.635C261.314 133.635 257.009 132.6 253.765 130.724C251.375 129.346 249.778 127.622 249.117 125.74C248.001 122.56 249.707 119.281 253.684 116.964C256.91 115.087 261.22 114.054 265.797 114.054C270.373 114.054 274.694 115.087 277.94 116.964C281.975 119.297 283.712 122.603 282.587 125.803C281.936 127.659 280.355 129.361 278.017 130.724C274.795 132.6 270.494 133.635 265.909 133.635Z" fill="#0052FF"/>
<path d="M265.798 114.331C270.335 114.331 274.599 115.351 277.802 117.203C281.712 119.465 283.405 122.645 282.328 125.711C281.697 127.505 280.159 129.156 277.88 130.484C274.698 132.337 270.447 133.359 265.909 133.359C261.371 133.359 257.106 132.337 253.903 130.484C251.581 129.14 250.015 127.468 249.377 125.648C248.308 122.604 249.969 119.446 253.824 117.203C257.007 115.351 261.258 114.331 265.798 114.331ZM265.798 113.778C261.359 113.778 256.924 114.76 253.548 116.725C249.3 119.198 247.738 122.639 248.859 125.831C249.519 127.711 251.109 129.503 253.638 130.961C257.035 132.928 261.481 133.907 265.92 133.907C270.358 133.907 274.792 132.924 278.168 130.961C280.642 129.519 282.212 127.751 282.859 125.893C283.985 122.685 282.394 119.214 278.089 116.725C274.691 114.76 270.246 113.778 265.807 113.778H265.798Z" fill="white"/>
<path d="M278.772 125.402C278.278 126.814 277.088 128.164 275.206 129.256C270.075 132.245 261.724 132.245 256.56 129.256C254.644 128.151 253.435 126.785 252.933 125.356C252.08 122.928 253.27 120.312 256.497 118.432C261.631 115.445 269.981 115.443 275.147 118.432C278.419 120.325 279.629 122.965 278.772 125.402Z" fill="#5CA6FF"/>
<path d="M265.91 133.819C265.022 133.819 264.125 133.779 263.247 133.698C259.637 133.372 256.358 132.409 253.764 130.908C253.321 130.652 252.892 130.373 252.478 130.072C250.136 128.377 248.826 126.258 248.787 124.1V123.897V119.082H251.112L251.193 119.004C251.949 118.289 252.787 117.666 253.689 117.148C256.915 115.272 261.225 114.239 265.802 114.239C270.378 114.239 274.699 115.272 277.945 117.15C278.855 117.668 279.7 118.291 280.465 119.006L280.544 119.082H282.934V123.927V124.111C282.915 126.669 281.175 129.083 278.034 130.924C276.597 131.743 275.065 132.381 273.472 132.821C271.857 133.276 270.204 133.577 268.533 133.72L268.401 133.731C267.568 133.784 266.737 133.819 265.91 133.819Z" fill="#00468C"/>
<path d="M265.796 114.515C270.334 114.515 274.598 115.535 277.802 117.387C278.691 117.896 279.519 118.506 280.269 119.205L280.429 119.358H282.647V123.593V124.103C282.629 126.56 280.938 128.891 277.883 130.67C276.466 131.479 274.954 132.108 273.382 132.541C271.784 132.99 270.149 133.288 268.496 133.431H268.43H268.362C267.553 133.499 266.73 133.534 265.912 133.534C265.031 133.534 264.142 133.493 263.272 133.414C259.701 133.092 256.461 132.14 253.899 130.652C253.463 130.401 253.041 130.127 252.634 129.832C250.366 128.19 249.096 126.149 249.057 124.078V123.936V119.332H251.217L251.377 119.177C252.119 118.479 252.94 117.869 253.823 117.362C257.007 115.509 261.258 114.489 265.796 114.489M265.796 113.937C261.357 113.937 256.922 114.92 253.546 116.883C252.624 117.412 251.769 118.048 250.996 118.778H248.506V124.078C248.546 126.273 249.815 128.462 252.311 130.269C252.733 130.575 253.171 130.859 253.623 131.119C256.332 132.687 259.71 133.629 263.219 133.946C264.111 134.027 265.009 134.068 265.908 134.068C266.743 134.068 267.577 134.033 268.404 133.963L268.538 133.952C270.227 133.806 271.897 133.503 273.529 133.044C275.144 132.597 276.697 131.95 278.153 131.119C281.496 129.173 283.173 126.628 283.191 124.078V118.805H280.649C279.868 118.075 279.005 117.439 278.076 116.911C274.677 114.944 270.233 113.964 265.794 113.964L265.796 113.937Z" fill="#00468C"/>
<path d="M265.915 133.819C265.11 133.819 264.298 133.786 263.5 133.72V126.223H268.268V133.725C267.49 133.788 266.7 133.819 265.915 133.819Z" fill="#00468C"/>
<path d="M267.99 126.499V133.462C267.303 133.51 266.606 133.535 265.914 133.535C265.221 133.535 264.484 133.508 263.774 133.456V126.499H267.99ZM268.542 125.947H263.223V133.974C264.114 134.055 265.015 134.095 265.914 134.095C266.812 134.095 267.672 134.057 268.542 133.979V125.947Z" fill="#00468C"/>
<path d="M273.532 125.947V133.071C271.901 133.53 270.23 133.834 268.542 133.979L268.408 133.99L268.213 133.974V125.947H273.532Z" fill="white"/>
<path d="M263.223 119.553V133.974C259.714 133.657 256.336 132.714 253.627 131.147C253.175 130.887 252.737 130.603 252.314 130.296V119.553H263.223Z" fill="white"/>
<path d="M265.908 128.595C261.313 128.595 257.009 127.56 253.765 125.683C251.375 124.306 249.778 122.582 249.116 120.7C248.001 117.52 249.708 114.24 253.684 111.924C256.91 110.047 261.22 109.014 265.796 109.014C270.373 109.014 274.694 110.047 277.94 111.926C281.975 114.259 283.711 117.562 282.587 120.765C281.936 122.621 280.355 124.322 278.017 125.685C274.795 127.569 270.494 128.595 265.908 128.595Z" fill="#85ABFF"/>
<path d="M265.798 109.29C270.335 109.29 274.599 110.311 277.802 112.165C281.712 114.426 283.405 117.607 282.328 120.671C281.697 122.466 280.159 124.116 277.88 125.444C274.698 127.298 270.447 128.319 265.909 128.319C261.371 128.319 257.106 127.298 253.903 125.444C251.581 124.1 250.015 122.428 249.377 120.608C248.308 117.564 249.969 114.406 253.824 112.163C257.007 110.311 261.258 109.29 265.798 109.29ZM265.798 108.738C261.359 108.738 256.924 109.721 253.548 111.684C249.3 114.157 247.738 117.599 248.859 120.791C249.519 122.671 251.109 124.462 253.638 125.921C257.035 127.886 261.481 128.867 265.92 128.867C270.358 128.867 274.792 127.884 278.168 125.921C280.642 124.479 282.212 122.711 282.859 120.853C283.985 117.645 282.394 114.174 278.089 111.684C274.691 109.718 270.246 108.738 265.807 108.738H265.798Z" fill="white"/>
<path d="M278.772 120.363C278.278 121.776 277.088 123.126 275.206 124.216C270.075 127.204 261.724 127.204 256.56 124.216C254.644 123.111 253.435 121.744 252.933 120.315C252.08 117.888 253.27 115.273 256.497 113.393C261.631 110.405 269.981 110.405 275.147 113.393C278.419 115.284 279.629 117.923 278.772 120.363Z" fill="#0052FF"/>
</g>
<defs>
<clipPath id="clip0_897_2548">
<rect width="468" height="175" fill="white"/>
</clipPath>
</defs>
</svg>
